<svg viewBox="0 0 90 90" xmlns="http://www.w3.org/2000/svg"><g fill="none"><path d="M.534 45c0 24.559 19.907 44.466 44.465 44.466 24.558 0 44.467-19.907 44.467-44.466S69.559.531 44.999.531C20.44.534.534 20.441.534 45Z" fill="#1D4371"/><path d="M44.999 0a44.705 44.705 0 0 0-31.816 13.18A44.705 44.705 0 0 0 0 45c0 12.02 4.68 23.32 13.183 31.82A44.705 44.705 0 0 0 44.999 90c12.018 0 23.322-4.68 31.818-13.183A44.705 44.705 0 0 0 90 45c0-12.02-4.683-23.32-13.183-31.82A44.705 44.705 0 0 0 45 0m0 .534C69.557.534 89.466 20.441 89.466 45S69.559 89.466 44.999 89.466C20.44 89.466.534 69.559.534 45S20.441.531 44.999.531" fill="#FFF"/><path d="m74.787 64.963-8.844.716a3.704 3.704 0 0 1-2.599-.99l-3.207-3.09-3.176-2.981a1.85 1.85 0 0 0-1.374-.433 1.836 1.836 0 0 0-1.676 1.721c-.029.426.09.848.337 1.196l5.614 6.714 1.999 2.18a2.962 2.962 0 1 1-4.11 4.265l-2.268-1.9-8.464-7.216-.406-.347a1.81 1.81 0 0 0-2.49.048l-.392.36-8.192 7.526-2.196 1.982a2.962 2.962 0 1 1-4.264-4.107l1.916-2.255 5.328-6.852a1.94 1.94 0 0 0 .326-1.27 1.836 1.836 0 0 0-1.74-1.658 1.85 1.85 0 0 0-1.355.48l-3.066 3.096-3.088 3.21a3.706 3.706 0 0 1-2.562 1.086l-8.859-.384-2.96-.152a2.963 2.963 0 0 1-.109-5.919l2.949-.24 6.6-.822a3.717 3.717 0 0 0 2.97-3.71l-.382-20.45c-.203-10.911 8.477-19.92 19.387-20.123 10.91-.203 19.92 8.478 20.122 19.388l.381 20.45a3.717 3.717 0 0 0 3.107 3.597l6.625.576 2.954.128a2.962 2.962 0 1 1 .112 5.919l-2.948.261Z" fill="#FFF"/><path d="M58.434 33.12a136.852 136.852 0 0 0-7.183-4.641c-1.281-.768-2.773.27-2.751 1.767.01.8.421 1.318 1.067 1.729 1.276.814 2.538 1.649 3.928 2.556-1.494.894-2.866 1.673-4.19 2.525-.96.614-1.174 1.708-.619 2.636.52.87 1.615 1.241 2.538.713a192.747 192.747 0 0 0 7.104-4.22c1.14-.714 1.203-2.31.106-3.065m-18.532 3.714c-1.217-.739-2.447-1.46-3.861-2.303 1.382-.896 2.604-1.68 3.816-2.479 1.254-.822 1.574-1.926.88-2.951-.667-.98-1.78-1.108-3-.32a998.94 998.94 0 0 0-6.129 3.968c-1.708 1.115-1.675 2.7.08 3.752a840.39 840.39 0 0 0 6.2 3.666c1.224.718 2.366.529 2.972-.472.614-1.011.245-2.132-.958-2.86" fill="#1D4371"/></g></svg>